<?xml version="1.0" standalone="no"?><!DOCTYPE svg PUBLIC "-//W3C//DTD SVG 1.1//EN" "http://www.w3.org/Graphics/SVG/1.1/DTD/svg11.dtd"><svg preserveAspectRatio="none" width="100%" height="100%" viewBox="0 0 1800 799" version="1.1" xmlns="http://www.w3.org/2000/svg"><style>rect.o{opacity:0}rect.o:hover{opacity:0.2}.a{fill:none;stroke:black;stroke-width:2}</style>
<polyline points="0,799 1825,799" class="a"/><polyline points="25,0 25,824" class="a"/><polyline points="0,720 1825,720" class="a" style="stroke:rgb(200,200,200)"/>
<polyline points="0,641 1825,641" class="a" style="stroke:rgb(200,200,200)"/>
<polyline points="0,562 1825,562" class="a" style="stroke:rgb(200,200,200)"/>
<polyline points="0,483 1825,483" class="a" style="stroke:rgb(200,200,200)"/>
<polyline points="0,404 1825,404" class="a" style="stroke:rgb(200,200,200)"/>
<polyline points="0,325 1825,325" class="a" style="stroke:rgb(200,200,200)"/>
<polyline points="0,246 1825,246" class="a" style="stroke:rgb(200,200,200)"/>
<polyline points="0,166 1825,166" class="a" style="stroke:rgb(200,200,200)"/>
<polyline points="0,87 1825,87" class="a" style="stroke:rgb(200,200,200)"/>
<polyline points="0,8 1825,8" class="a" style="stroke:rgb(200,200,200)"/>
<rect x="24" y="727" width="3" height="0" style="fill:rgb(0,0,255)" />
<rect x="24" y="655" width="3" height="72" style="fill:rgb(0,255,0)" />
<rect x="13" y="0" width="25" height="799" style="" title="2013-07-27 21:25:13      915  +915    -0   first commit" class="o" />
<rect x="49" y="654" width="3" height="0" style="fill:rgb(0,0,255)" />
<rect x="49" y="582" width="3" height="72" style="fill:rgb(0,255,0)" />
<rect x="38" y="0" width="25" height="799" style="" title="2013-07-27 21:26:06     1834  +919    -0   naming convention" class="o" />
<rect x="74" y="649" width="3" height="51" style="fill:rgb(0,0,255)" />
<rect x="74" y="592" width="3" height="56" style="fill:rgb(0,255,0)" />
<rect x="63" y="0" width="25" height="799" style="" title="2013-07-31 02:51:59     1907  +719  -646   WIP&#x3a; Naming editor" class="o" />
<rect x="99" y="600" width="3" height="0" style="fill:rgb(0,0,255)" />
<rect x="99" y="551" width="3" height="48" style="fill:rgb(0,255,0)" />
<rect x="88" y="0" width="25" height="799" style="" title="2013-07-31 02:51:59     2523  +616    -0   WIP&#x3a; Naming editor" class="o" />
<rect x="124" y="649" width="3" height="48" style="fill:rgb(0,0,255)" />
<rect x="124" y="649" width="3" height="0" style="fill:rgb(0,255,0)" />
<rect x="113" y="0" width="25" height="799" style="" title="2013-07-31 03:02:19     1907    +0  -616   moved to riglab&#x2e;naming" class="o" />
<rect x="149" y="633" width="3" height="1" style="fill:rgb(0,0,255)" />
<rect x="149" y="616" width="3" height="16" style="fill:rgb(0,255,0)" />
<rect x="138" y="0" width="25" height="799" style="" title="2013-08-01 01:47:45     2103  +210   -14   WIP&#x3a; save&#x2f;load naming editor" class="o" />
<rect x="174" y="620" width="3" height="5" style="fill:rgb(0,0,255)" />
<rect x="174" y="601" width="3" height="18" style="fill:rgb(0,255,0)" />
<rect x="163" y="0" width="25" height="799" style="" title="2013-08-02 14:00:45     2271  +232   -64   naming editor gui properly working" class="o" />
<rect x="199" y="617" width="3" height="0" style="fill:rgb(0,0,255)" />
<rect x="199" y="615" width="3" height="2" style="fill:rgb(0,255,0)" />
<rect x="188" y="0" width="25" height="799" style="" title="2013-08-02 16:31:41     2302   +33    -2   project goals added" class="o" />
<rect x="224" y="597" width="3" height="0" style="fill:rgb(0,0,255)" />
<rect x="224" y="577" width="3" height="20" style="fill:rgb(0,255,0)" />
<rect x="213" y="0" width="25" height="799" style="" title="2013-08-06 00:00:53     2557  +255    -0   SOLVERS&#x3a; fk refactor" class="o" />
<rect x="249" y="590" width="3" height="1" style="fill:rgb(0,0,255)" />
<rect x="249" y="582" width="3" height="8" style="fill:rgb(0,255,0)" />
<rect x="238" y="0" width="25" height="799" style="" title="2013-08-06 12:35:03     2646  +107   -18   SOLVERS&#x3a; ik refactor" class="o" />
<rect x="274" y="495" width="3" height="5" style="fill:rgb(0,0,255)" />
<rect x="274" y="394" width="3" height="100" style="fill:rgb(0,255,0)" />
<rect x="263" y="0" width="25" height="799" style="" title="2013-08-09 01:20:19     3851 +1276   -71   bonetools added" class="o" />
<rect x="299" y="491" width="3" height="1" style="fill:rgb(0,0,255)" />
<rect x="299" y="486" width="3" height="5" style="fill:rgb(0,255,0)" />
<rect x="288" y="0" width="25" height="799" style="" title="2013-08-09 01:20:58     3901   +67   -17   SOLVERS&#x3a; IK&#x2c; FK cleanup" class="o" />
<rect x="324" y="487" width="3" height="5" style="fill:rgb(0,0,255)" />
<rect x="324" y="478" width="3" height="9" style="fill:rgb(0,255,0)" />
<rect x="313" y="0" width="25" height="799" style="" title="2013-08-10 23:10:04     3944  +116   -73   SOLVERS&#x3a; transform &#x2b; lengths from curve" class="o" />
<rect x="349" y="488" width="3" height="2" style="fill:rgb(0,0,255)" />
<rect x="349" y="487" width="3" height="1" style="fill:rgb(0,255,0)" />
<rect x="338" y="0" width="25" height="799" style="" title="2013-08-11 00:54:42     3934   +18   -28   SOLVER&#x3a; reversed connection automagically handled" class="o" />
<rect x="374" y="485" width="3" height="6" style="fill:rgb(0,0,255)" />
<rect x="374" y="476" width="3" height="9" style="fill:rgb(0,255,0)" />
<rect x="363" y="0" width="25" height="799" style="" title="2013-08-12 13:57:22     3972  +122   -84   SOLVERS&#x3a; snap" class="o" />
<rect x="399" y="370" width="3" height="0" style="fill:rgb(0,0,255)" />
<rect x="399" y="255" width="3" height="115" style="fill:rgb(0,255,0)" />
<rect x="388" y="0" width="25" height="799" style="" title="2013-09-18 00:58:06     5427 +1460    -5   WIP&#x3a; splineIK refactoring" class="o" />
<rect x="424" y="371" width="3" height="1" style="fill:rgb(0,0,255)" />
<rect x="424" y="370" width="3" height="0" style="fill:rgb(0,255,0)" />
<rect x="413" y="0" width="25" height="799" style="" title="2013-10-02 19:50:22     5420    +6   -13   project goals updated &#x2b; splineik refactoring &#x28;wip&#x29;" class="o" />
<rect x="449" y="370" width="3" height="0" style="fill:rgb(0,0,255)" />
<rect x="449" y="368" width="3" height="1" style="fill:rgb(0,255,0)" />
<rect x="438" y="0" width="25" height="799" style="" title="2013-11-22 00:26:12     5430   +22   -12   project goals" class="o" />
<rect x="474" y="311" width="3" height="0" style="fill:rgb(0,0,255)" />
<rect x="474" y="253" width="3" height="58" style="fill:rgb(0,255,0)" />
<rect x="463" y="0" width="25" height="799" style="" title="2013-11-22 00:26:45     6168  +738    -0   pose reader draft" class="o" />
<rect x="499" y="261" width="3" height="0" style="fill:rgb(0,0,255)" />
<rect x="499" y="211" width="3" height="50" style="fill:rgb(0,255,0)" />
<rect x="488" y="0" width="25" height="799" style="" title="2013-11-22 00:27:30     6802  +634    -0   rig&#x2f;solvers gui manager 1" class="o" />
<rect x="524" y="254" width="3" height="4" style="fill:rgb(0,0,255)" />
<rect x="524" y="243" width="3" height="11" style="fill:rgb(0,255,0)" />
<rect x="513" y="0" width="25" height="799" style="" title="2013-11-24 23:47:44     6891  +140   -51   rig&#x2f;solvers gui manager 2" class="o" />
<rect x="549" y="230" width="3" height="14" style="fill:rgb(0,0,255)" />
<rect x="549" y="192" width="3" height="38" style="fill:rgb(0,255,0)" />
<rect x="538" y="0" width="25" height="799" style="" title="2013-12-16 15:15:56     7195  +485  -181   multiposes&#x2b;groups&#x2b;solvers kinda working" class="o" />
<rect x="574" y="224" width="3" height="0" style="fill:rgb(0,0,255)" />
<rect x="574" y="217" width="3" height="7" style="fill:rgb(0,255,0)" />
<rect x="563" y="0" width="25" height="799" style="" title="2013-12-16 18:55:00     7277   +89    -7   select skeleton and manipulators by group" class="o" />
<rect x="599" y="223" width="3" height="0" style="fill:rgb(0,0,255)" />
<rect x="599" y="222" width="3" height="0" style="fill:rgb(0,255,0)" />
<rect x="588" y="0" width="25" height="799" style="" title="2013-12-16 19:23:55     7286   +10    -1   Filter right click menu using context" class="o" />
<rect x="624" y="224" width="3" height="4" style="fill:rgb(0,0,255)" />
<rect x="624" y="220" width="3" height="3" style="fill:rgb(0,255,0)" />
<rect x="613" y="0" width="25" height="799" style="" title="2013-12-16 21:25:47     7272   +49   -63   Clean up" class="o" />
<rect x="649" y="224" width="3" height="0" style="fill:rgb(0,0,255)" />
<rect x="649" y="223" width="3" height="0" style="fill:rgb(0,255,0)" />
<rect x="638" y="0" width="25" height="799" style="" title="2013-12-20 11:01:58     7273    +7    -6   clean up 2" class="o" />
<rect x="674" y="224" width="3" height="0" style="fill:rgb(0,0,255)" />
<rect x="674" y="224" width="3" height="0" style="fill:rgb(0,255,0)" />
<rect x="663" y="0" width="25" height="799" style="" title="2013-12-20 11:39:40     7274    +5    -4   BUGFIX&#x3a; bonetools&#x2e;deep" class="o" />
<rect x="699" y="215" width="3" height="5" style="fill:rgb(0,0,255)" />
<rect x="699" y="201" width="3" height="14" style="fill:rgb(0,255,0)" />
<rect x="688" y="0" width="25" height="799" style="" title="2014-01-13 19:06:22     7383  +182   -73   manipulators GUI" class="o" />
<rect x="724" y="215" width="3" height="1" style="fill:rgb(0,0,255)" />
<rect x="724" y="213" width="3" height="1" style="fill:rgb(0,255,0)" />
<rect x="713" y="0" width="25" height="799" style="" title="2014-01-13 19:46:26     7386   +25   -22   solvers&#x27; cache added" class="o" />
<rect x="749" y="214" width="3" height="0" style="fill:rgb(0,0,255)" />
<rect x="749" y="213" width="3" height="1" style="fill:rgb(0,255,0)" />
<rect x="738" y="0" width="25" height="799" style="" title="2014-01-13 20:51:56     7394   +16    -8   manipulators cache" class="o" />
<rect x="774" y="192" width="3" height="2" style="fill:rgb(0,0,255)" />
<rect x="774" y="167" width="3" height="24" style="fill:rgb(0,255,0)" />
<rect x="763" y="0" width="25" height="799" style="" title="2014-01-15 01:00:51     7672  +315   -37   manipulators signals" class="o" />
<rect x="799" y="181" width="3" height="2" style="fill:rgb(0,0,255)" />
<rect x="799" y="167" width="3" height="14" style="fill:rgb(0,255,0)" />
<rect x="788" y="0" width="25" height="799" style="" title="2014-01-16 01:18:57     7818  +178   -32   solver&#x27;s name" class="o" />
<rect x="824" y="115" width="3" height="9" style="fill:rgb(0,0,255)" />
<rect x="824" y="39" width="3" height="75" style="fill:rgb(0,255,0)" />
<rect x="813" y="0" width="25" height="799" style="" title="2014-01-16 21:19:16     8651  +958  -125   bonetools &#x2d;&#x3e; utils" class="o" />
<rect x="849" y="83" width="3" height="21" style="fill:rgb(0,0,255)" />
<rect x="849" y="30" width="3" height="53" style="fill:rgb(0,255,0)" />
<rect x="838" y="0" width="25" height="799" style="" title="2014-01-26 17:49:09     9056  +672  -267   shapes&#x2b;color convention" class="o" />
<rect x="874" y="81" width="3" height="0" style="fill:rgb(0,0,255)" />
<rect x="874" y="78" width="3" height="2" style="fill:rgb(0,255,0)" />
<rect x="863" y="0" width="25" height="799" style="" title="2014-01-26 22:03:32     9083   +36    -9   BUGFIX&#x3a; roll value is now properly determined" class="o" />
<rect x="899" y="78" width="3" height="0" style="fill:rgb(0,0,255)" />
<rect x="899" y="75" width="3" height="2" style="fill:rgb(0,255,0)" />
<rect x="888" y="0" width="25" height="799" style="" title="2014-01-26 22:04:50     9117   +35    -1   project history updated" class="o" />
<rect x="924" y="77" width="3" height="1" style="fill:rgb(0,0,255)" />
<rect x="924" y="74" width="3" height="2" style="fill:rgb(0,255,0)" />
<rect x="913" y="0" width="25" height="799" style="" title="2014-01-27 11:01:13     9134   +36   -19   single bone fk suppport" class="o" />
<rect x="949" y="70" width="3" height="0" style="fill:rgb(0,0,255)" />
<rect x="949" y="63" width="3" height="7" style="fill:rgb(0,255,0)" />
<rect x="938" y="0" width="25" height="799" style="" title="2014-01-27 13:31:29     9220   +93    -7   Joint utils as commands" class="o" />
<rect x="974" y="70" width="3" height="73" style="fill:rgb(0,0,255)" />
<rect x="974" y="-3" width="3" height="73" style="fill:rgb(0,255,0)" />
<rect x="963" y="0" width="25" height="799" style="" title="2014-01-27 22:55:02     9220  +929  -929   manager &#x2d;&#x3e; editor" class="o" />
<rect x="999" y="68" width="3" height="0" style="fill:rgb(0,0,255)" />
<rect x="999" y="66" width="3" height="2" style="fill:rgb(0,255,0)" />
<rect x="988" y="0" width="25" height="799" style="" title="2014-01-27 22:55:43     9243   +27    -4   orthogonalize utility" class="o" />
<rect x="1024" y="168" width="3" height="101" style="fill:rgb(0,0,255)" />
<rect x="1024" y="166" width="3" height="1" style="fill:rgb(0,255,0)" />
<rect x="1013" y="0" width="25" height="799" style="" title="2014-01-28 15:17:53     7983   +21 -1281   naming module as dependency" class="o" />
<rect x="1049" y="165" width="3" height="3" style="fill:rgb(0,0,255)" />
<rect x="1049" y="158" width="3" height="6" style="fill:rgb(0,255,0)" />
<rect x="1038" y="0" width="25" height="799" style="" title="2014-01-29 01:15:45     8024   +82   -41   BUGFIX&#x3a; snap should be compatible with custom spaces" class="o" />
<rect x="1074" y="164" width="3" height="0" style="fill:rgb(0,0,255)" />
<rect x="1074" y="163" width="3" height="1" style="fill:rgb(0,255,0)" />
<rect x="1063" y="0" width="25" height="799" style="" title="2014-01-29 13:31:19     8035   +15    -4   BUGFIX&#x3a; preserve skeleton&#x27;s pose from disabled solvers" class="o" />
<rect x="1099" y="164" width="3" height="0" style="fill:rgb(0,0,255)" />
<rect x="1099" y="164" width="3" height="0" style="fill:rgb(0,255,0)" />
<rect x="1088" y="0" width="25" height="799" style="" title="2014-01-29 17:56:51     8035    +2    -2   BUGFIX&#x3a; side on manipulators name" class="o" />
<rect x="1124" y="154" width="3" height="1" style="fill:rgb(0,0,255)" />
<rect x="1124" y="143" width="3" height="11" style="fill:rgb(0,255,0)" />
<rect x="1113" y="0" width="25" height="799" style="" title="2014-01-29 23:11:21     8154  +142   -23   group&#x5f;data &#x28;templates&#x29; and mapping gui" class="o" />
<rect x="1149" y="143" width="3" height="9" style="fill:rgb(0,0,255)" />
<rect x="1149" y="122" width="3" height="20" style="fill:rgb(0,255,0)" />
<rect x="1138" y="0" width="25" height="799" style="" title="2014-01-30 03:21:52     8299  +262  -117   License GPL3" class="o" />
<rect x="1174" y="143" width="3" height="2" style="fill:rgb(0,0,255)" />
<rect x="1174" y="141" width="3" height="1" style="fill:rgb(0,255,0)" />
<rect x="1163" y="0" width="25" height="799" style="" title="2014-01-30 17:25:59     8296   +23   -26   typo" class="o" />
<rect x="1199" y="138" width="3" height="0" style="fill:rgb(0,0,255)" />
<rect x="1199" y="133" width="3" height="5" style="fill:rgb(0,255,0)" />
<rect x="1188" y="0" width="25" height="799" style="" title="2014-01-30 22:36:19     8356   +72   -12   template files &#x28;JSON based&#x29;" class="o" />
<rect x="1224" y="136" width="3" height="0" style="fill:rgb(0,0,255)" />
<rect x="1224" y="133" width="3" height="2" style="fill:rgb(0,255,0)" />
<rect x="1213" y="0" width="25" height="799" style="" title="2014-01-31 19:59:16     8388   +32    -0   templates specs" class="o" />
<rect x="1249" y="136" width="3" height="0" style="fill:rgb(0,0,255)" />
<rect x="1249" y="135" width="3" height="0" style="fill:rgb(0,255,0)" />
<rect x="1238" y="0" width="25" height="799" style="" title="2014-01-31 20:10:01     8388   +12   -12   template specs &#x28;reformatting&#x29;" class="o" />
<rect x="1274" y="133" width="3" height="1" style="fill:rgb(0,0,255)" />
<rect x="1274" y="130" width="3" height="3" style="fill:rgb(0,255,0)" />
<rect x="1263" y="0" width="25" height="799" style="" title="2014-01-31 20:37:03     8418   +45   -15   Templates&#x3a; solver &#x2b; internal dependencies working" class="o" />
<rect x="1299" y="133" width="3" height="0" style="fill:rgb(0,0,255)" />
<rect x="1299" y="132" width="3" height="0" style="fill:rgb(0,255,0)" />
<rect x="1288" y="0" width="25" height="799" style="" title="2014-01-31 20:56:27     8428   +12    -2   Templates&#x3a; states working&#x21;" class="o" />
<rect x="1324" y="132" width="3" height="0" style="fill:rgb(0,0,255)" />
<rect x="1324" y="132" width="3" height="0" style="fill:rgb(0,255,0)" />
<rect x="1313" y="0" width="25" height="799" style="" title="2014-01-31 21:00:45     8431    +3    -0   templates specs&#x3a; include states" class="o" />
<rect x="1349" y="130" width="3" height="3" style="fill:rgb(0,0,255)" />
<rect x="1349" y="124" width="3" height="6" style="fill:rgb(0,255,0)" />
<rect x="1338" y="0" width="25" height="799" style="" title="2014-02-01 18:01:47     8461   +78   -48   BUGFIX&#x3a; state restored on reload&#x5f;stack&#x28;&#x29;" class="o" />
<rect x="1374" y="130" width="3" height="0" style="fill:rgb(0,0,255)" />
<rect x="1374" y="129" width="3" height="0" style="fill:rgb(0,255,0)" />
<rect x="1363" y="0" width="25" height="799" style="" title="2014-02-01 18:53:49     8463    +8    -6   BUGFIX&#x3a; incorrect name on solvers&#x27; helpers&#x2f;outputs" class="o" />
<rect x="1399" y="117" width="3" height="6" style="fill:rgb(0,0,255)" />
<rect x="1399" y="97" width="3" height="19" style="fill:rgb(0,255,0)" />
<rect x="1388" y="0" width="25" height="799" style="" title="2014-02-02 16:55:20     8629  +250   -84   space types&#x3a; &#x22;parent&#x22; or &#x22;orient&#x22;" class="o" />
<rect x="1424" y="117" width="3" height="0" style="fill:rgb(0,0,255)" />
<rect x="1424" y="117" width="3" height="0" style="fill:rgb(0,255,0)" />
<rect x="1413" y="0" width="25" height="799" style="" title="2014-02-02 16:57:20     8625    +0    -4   external spaces support" class="o" />
<rect x="1449" y="117" width="3" height="1" style="fill:rgb(0,0,255)" />
<rect x="1449" y="115" width="3" height="1" style="fill:rgb(0,255,0)" />
<rect x="1438" y="0" width="25" height="799" style="" title="2014-02-02 20:45:09     8626   +22   -21   external&#x2f;internal dependencies &#x28;templates&#x2b;auto&#x2d;snap&#x29;" class="o" />
<rect x="1474" y="103" width="3" height="2" style="fill:rgb(0,0,255)" />
<rect x="1474" y="88" width="3" height="15" style="fill:rgb(0,255,0)" />
<rect x="1463" y="0" width="25" height="799" style="" title="2014-02-03 20:09:40     8797  +199   -28   quicklab &#x2b; unified cache" class="o" />
<rect x="1499" y="100" width="3" height="7" style="fill:rgb(0,0,255)" />
<rect x="1499" y="89" width="3" height="10" style="fill:rgb(0,255,0)" />
<rect x="1488" y="0" width="25" height="799" style="" title="2014-02-04 02:29:32     8839  +137   -95   cleanup" class="o" />
<rect x="1524" y="77" width="3" height="0" style="fill:rgb(0,0,255)" />
<rect x="1524" y="54" width="3" height="22" style="fill:rgb(0,255,0)" />
<rect x="1513" y="0" width="25" height="799" style="" title="2014-02-04 02:32:12     9128  +289    -0   changes updated" class="o" />
<rect x="1549" y="76" width="3" height="1" style="fill:rgb(0,0,255)" />
<rect x="1549" y="73" width="3" height="2" style="fill:rgb(0,255,0)" />
<rect x="1538" y="0" width="25" height="799" style="" title="2014-02-04 16:57:59     9144   +37   -21   skeleton support for internal dependencies" class="o" />
<rect x="1574" y="76" width="3" height="2" style="fill:rgb(0,0,255)" />
<rect x="1574" y="73" width="3" height="2" style="fill:rgb(0,255,0)" />
<rect x="1563" y="0" width="25" height="799" style="" title="2014-02-04 21:18:28     9145   +30   -29   Transfer options" class="o" />
<rect x="1599" y="75" width="3" height="1" style="fill:rgb(0,0,255)" />
<rect x="1599" y="73" width="3" height="2" style="fill:rgb(0,255,0)" />
<rect x="1588" y="0" width="25" height="799" style="" title="2014-02-05 22:02:34     9156   +27   -16   BUGFIX&#x3a; load template file" class="o" />
<rect x="1624" y="75" width="3" height="2" style="fill:rgb(0,0,255)" />
<rect x="1624" y="72" width="3" height="2" style="fill:rgb(0,255,0)" />
<rect x="1613" y="0" width="25" height="799" style="" title="2014-02-05 23:41:10     9155   +35   -36   readme updated" class="o" />
<rect x="1649" y="74" width="3" height="0" style="fill:rgb(0,0,255)" />
<rect x="1649" y="72" width="3" height="1" style="fill:rgb(0,255,0)" />
<rect x="1638" y="0" width="25" height="799" style="" title="2014-02-06 23:26:07     9168   +25   -12   Negate transforms" class="o" />
<rect x="1674" y="72" width="3" height="1" style="fill:rgb(0,0,255)" />
<rect x="1674" y="69" width="3" height="3" style="fill:rgb(0,255,0)" />
<rect x="1663" y="0" width="25" height="799" style="" title="2014-02-07 01:01:45     9192   +46   -22   solvers cleanup" class="o" />
<rect x="1699" y="42" width="3" height="7" style="fill:rgb(0,0,255)" />
<rect x="1699" y="5" width="3" height="37" style="fill:rgb(0,255,0)" />
<rect x="1688" y="0" width="25" height="799" style="" title="2014-02-08 00:49:34     9572  +470   -90   rig cleanup &#x2b; 1st draft psd spaces" class="o" />
<rect x="1724" y="0" width="3" height="8" style="fill:rgb(0,0,255)" />
<rect x="1724" y="-51" width="3" height="51" style="fill:rgb(0,255,0)" />
<rect x="1713" y="0" width="25" height="799" style="" title="2014-02-08 22:02:44    10110  +646  -108   psd &#x28;aka reader&#x29; spaces working&#x21;" class="o" />
<rect x="1749" y="0" width="3" height="3" style="fill:rgb(0,0,255)" />
<rect x="1749" y="-1" width="3" height="2" style="fill:rgb(0,255,0)" />
<rect x="1738" y="0" width="25" height="799" style="" title="2014-02-15 16:41:45    10103   +32   -39   wishlib 0&#x2e;3&#x2e;0" class="o" />
<rect x="1774" y="0" width="3" height="0" style="fill:rgb(0,0,255)" />
<rect x="1774" y="0" width="3" height="0" style="fill:rgb(0,255,0)" />
<rect x="1763" y="0" width="25" height="799" style="" title="2014-02-15 16:52:26    10103    +1    -1   typo" class="o" />
<rect x="1799" y="0" width="3" height="0" style="fill:rgb(0,0,255)" />
<rect x="1799" y="0" width="3" height="0" style="fill:rgb(0,255,0)" />
<rect x="1788" y="0" width="25" height="799" style="" title="2014-02-16 11:54:54    10107    +4    -0   riglab videos" class="o" />
<polyline points="25,727 50,654 75,649 100,600 125,649 150,633 175,620 200,617 225,597 250,590 275,495 300,491 325,487 350,488 375,485 400,370 425,371 450,370 475,311 500,261 525,254 550,230 575,224 600,223 625,224 650,224 675,224 700,215 725,215 750,214 775,192 800,181 825,115 850,83 875,81 900,78 925,77 950,70 975,70 1000,68 1025,168 1050,165 1075,164 1100,164 1125,154 1150,143 1175,143 1200,138 1225,136 1250,136 1275,133 1300,133 1325,132 1350,130 1375,130 1400,117 1425,117 1450,117 1475,103 1500,100 1525,77 1550,76 1575,76 1600,75 1625,75 1650,74 1675,72 1700,42 1725,0 1750,0 1775,0 1800,0" class="a" style="stroke:red"/></svg>
