<?xml version="1.0" standalone="no"?><!DOCTYPE svg PUBLIC "-//W3C//DTD SVG 1.1//EN" "http://www.w3.org/Graphics/SVG/1.1/DTD/svg11.dtd"><svg preserveAspectRatio="none" width="100%" height="100%" viewBox="0 0 1500 799" version="1.1" xmlns="http://www.w3.org/2000/svg"><style>rect.o{opacity:0}rect.o:hover{opacity:0.2}.a{fill:none;stroke:black;stroke-width:2}</style>
<polyline points="0,799 1525,799" class="a"/><polyline points="25,0 25,824" class="a"/><polyline points="0,791 1525,791" class="a" style="stroke:rgb(200,200,200)"/>
<polyline points="0,782 1525,782" class="a" style="stroke:rgb(200,200,200)"/>
<polyline points="0,774 1525,774" class="a" style="stroke:rgb(200,200,200)"/>
<polyline points="0,765 1525,765" class="a" style="stroke:rgb(200,200,200)"/>
<polyline points="0,756 1525,756" class="a" style="stroke:rgb(200,200,200)"/>
<polyline points="0,748 1525,748" class="a" style="stroke:rgb(200,200,200)"/>
<polyline points="0,739 1525,739" class="a" style="stroke:rgb(200,200,200)"/>
<polyline points="0,730 1525,730" class="a" style="stroke:rgb(200,200,200)"/>
<polyline points="0,722 1525,722" class="a" style="stroke:rgb(200,200,200)"/>
<polyline points="0,713 1525,713" class="a" style="stroke:rgb(200,200,200)"/>
<polyline points="0,704 1525,704" class="a" style="stroke:rgb(200,200,200)"/>
<polyline points="0,696 1525,696" class="a" style="stroke:rgb(200,200,200)"/>
<polyline points="0,687 1525,687" class="a" style="stroke:rgb(200,200,200)"/>
<polyline points="0,678 1525,678" class="a" style="stroke:rgb(200,200,200)"/>
<polyline points="0,670 1525,670" class="a" style="stroke:rgb(200,200,200)"/>
<polyline points="0,661 1525,661" class="a" style="stroke:rgb(200,200,200)"/>
<polyline points="0,652 1525,652" class="a" style="stroke:rgb(200,200,200)"/>
<polyline points="0,644 1525,644" class="a" style="stroke:rgb(200,200,200)"/>
<polyline points="0,635 1525,635" class="a" style="stroke:rgb(200,200,200)"/>
<polyline points="0,626 1525,626" class="a" style="stroke:rgb(200,200,200)"/>
<polyline points="0,618 1525,618" class="a" style="stroke:rgb(200,200,200)"/>
<polyline points="0,609 1525,609" class="a" style="stroke:rgb(200,200,200)"/>
<polyline points="0,600 1525,600" class="a" style="stroke:rgb(200,200,200)"/>
<polyline points="0,592 1525,592" class="a" style="stroke:rgb(200,200,200)"/>
<polyline points="0,583 1525,583" class="a" style="stroke:rgb(200,200,200)"/>
<polyline points="0,574 1525,574" class="a" style="stroke:rgb(200,200,200)"/>
<polyline points="0,566 1525,566" class="a" style="stroke:rgb(200,200,200)"/>
<polyline points="0,557 1525,557" class="a" style="stroke:rgb(200,200,200)"/>
<polyline points="0,548 1525,548" class="a" style="stroke:rgb(200,200,200)"/>
<polyline points="0,540 1525,540" class="a" style="stroke:rgb(200,200,200)"/>
<polyline points="0,531 1525,531" class="a" style="stroke:rgb(200,200,200)"/>
<polyline points="0,523 1525,523" class="a" style="stroke:rgb(200,200,200)"/>
<polyline points="0,514 1525,514" class="a" style="stroke:rgb(200,200,200)"/>
<polyline points="0,505 1525,505" class="a" style="stroke:rgb(200,200,200)"/>
<polyline points="0,497 1525,497" class="a" style="stroke:rgb(200,200,200)"/>
<polyline points="0,488 1525,488" class="a" style="stroke:rgb(200,200,200)"/>
<polyline points="0,479 1525,479" class="a" style="stroke:rgb(200,200,200)"/>
<polyline points="0,471 1525,471" class="a" style="stroke:rgb(200,200,200)"/>
<polyline points="0,462 1525,462" class="a" style="stroke:rgb(200,200,200)"/>
<polyline points="0,453 1525,453" class="a" style="stroke:rgb(200,200,200)"/>
<polyline points="0,445 1525,445" class="a" style="stroke:rgb(200,200,200)"/>
<polyline points="0,436 1525,436" class="a" style="stroke:rgb(200,200,200)"/>
<polyline points="0,427 1525,427" class="a" style="stroke:rgb(200,200,200)"/>
<polyline points="0,419 1525,419" class="a" style="stroke:rgb(200,200,200)"/>
<polyline points="0,410 1525,410" class="a" style="stroke:rgb(200,200,200)"/>
<polyline points="0,401 1525,401" class="a" style="stroke:rgb(200,200,200)"/>
<polyline points="0,393 1525,393" class="a" style="stroke:rgb(200,200,200)"/>
<polyline points="0,384 1525,384" class="a" style="stroke:rgb(200,200,200)"/>
<polyline points="0,375 1525,375" class="a" style="stroke:rgb(200,200,200)"/>
<polyline points="0,367 1525,367" class="a" style="stroke:rgb(200,200,200)"/>
<polyline points="0,358 1525,358" class="a" style="stroke:rgb(200,200,200)"/>
<polyline points="0,349 1525,349" class="a" style="stroke:rgb(200,200,200)"/>
<polyline points="0,341 1525,341" class="a" style="stroke:rgb(200,200,200)"/>
<polyline points="0,332 1525,332" class="a" style="stroke:rgb(200,200,200)"/>
<polyline points="0,323 1525,323" class="a" style="stroke:rgb(200,200,200)"/>
<polyline points="0,315 1525,315" class="a" style="stroke:rgb(200,200,200)"/>
<polyline points="0,306 1525,306" class="a" style="stroke:rgb(200,200,200)"/>
<polyline points="0,297 1525,297" class="a" style="stroke:rgb(200,200,200)"/>
<polyline points="0,289 1525,289" class="a" style="stroke:rgb(200,200,200)"/>
<polyline points="0,280 1525,280" class="a" style="stroke:rgb(200,200,200)"/>
<polyline points="0,272 1525,272" class="a" style="stroke:rgb(200,200,200)"/>
<polyline points="0,263 1525,263" class="a" style="stroke:rgb(200,200,200)"/>
<polyline points="0,254 1525,254" class="a" style="stroke:rgb(200,200,200)"/>
<polyline points="0,246 1525,246" class="a" style="stroke:rgb(200,200,200)"/>
<polyline points="0,237 1525,237" class="a" style="stroke:rgb(200,200,200)"/>
<polyline points="0,228 1525,228" class="a" style="stroke:rgb(200,200,200)"/>
<polyline points="0,220 1525,220" class="a" style="stroke:rgb(200,200,200)"/>
<polyline points="0,211 1525,211" class="a" style="stroke:rgb(200,200,200)"/>
<polyline points="0,202 1525,202" class="a" style="stroke:rgb(200,200,200)"/>
<polyline points="0,194 1525,194" class="a" style="stroke:rgb(200,200,200)"/>
<polyline points="0,185 1525,185" class="a" style="stroke:rgb(200,200,200)"/>
<polyline points="0,176 1525,176" class="a" style="stroke:rgb(200,200,200)"/>
<polyline points="0,168 1525,168" class="a" style="stroke:rgb(200,200,200)"/>
<polyline points="0,159 1525,159" class="a" style="stroke:rgb(200,200,200)"/>
<polyline points="0,150 1525,150" class="a" style="stroke:rgb(200,200,200)"/>
<polyline points="0,142 1525,142" class="a" style="stroke:rgb(200,200,200)"/>
<polyline points="0,133 1525,133" class="a" style="stroke:rgb(200,200,200)"/>
<polyline points="0,124 1525,124" class="a" style="stroke:rgb(200,200,200)"/>
<polyline points="0,116 1525,116" class="a" style="stroke:rgb(200,200,200)"/>
<polyline points="0,107 1525,107" class="a" style="stroke:rgb(200,200,200)"/>
<polyline points="0,98 1525,98" class="a" style="stroke:rgb(200,200,200)"/>
<polyline points="0,90 1525,90" class="a" style="stroke:rgb(200,200,200)"/>
<polyline points="0,81 1525,81" class="a" style="stroke:rgb(200,200,200)"/>
<polyline points="0,72 1525,72" class="a" style="stroke:rgb(200,200,200)"/>
<polyline points="0,64 1525,64" class="a" style="stroke:rgb(200,200,200)"/>
<polyline points="0,55 1525,55" class="a" style="stroke:rgb(200,200,200)"/>
<polyline points="0,46 1525,46" class="a" style="stroke:rgb(200,200,200)"/>
<polyline points="0,38 1525,38" class="a" style="stroke:rgb(200,200,200)"/>
<polyline points="0,29 1525,29" class="a" style="stroke:rgb(200,200,200)"/>
<polyline points="0,21 1525,21" class="a" style="stroke:rgb(200,200,200)"/>
<polyline points="0,12 1525,12" class="a" style="stroke:rgb(200,200,200)"/>
<polyline points="0,3 1525,3" class="a" style="stroke:rgb(200,200,200)"/>
<rect x="24" y="720" width="3" height="0" style="fill:rgb(0,0,255)" />
<rect x="24" y="641" width="3" height="79" style="fill:rgb(0,255,0)" />
<rect x="13" y="0" width="25" height="799" style="" title="2013-07-27 21:25:13      915  +915    -0   first commit" class="o" />
<rect x="49" y="641" width="3" height="0" style="fill:rgb(0,0,255)" />
<rect x="49" y="561" width="3" height="79" style="fill:rgb(0,255,0)" />
<rect x="38" y="0" width="25" height="799" style="" title="2013-07-27 21:26:06     1834  +919    -0   naming convention" class="o" />
<rect x="74" y="634" width="3" height="55" style="fill:rgb(0,0,255)" />
<rect x="74" y="572" width="3" height="62" style="fill:rgb(0,255,0)" />
<rect x="63" y="0" width="25" height="799" style="" title="2013-07-31 02:51:59     1907  +719  -646   WIP&#x3a; Naming editor" class="o" />
<rect x="99" y="581" width="3" height="0" style="fill:rgb(0,0,255)" />
<rect x="99" y="528" width="3" height="53" style="fill:rgb(0,255,0)" />
<rect x="88" y="0" width="25" height="799" style="" title="2013-07-31 02:51:59     2523  +616    -0   WIP&#x3a; Naming editor" class="o" />
<rect x="124" y="634" width="3" height="53" style="fill:rgb(0,0,255)" />
<rect x="124" y="634" width="3" height="0" style="fill:rgb(0,255,0)" />
<rect x="113" y="0" width="25" height="799" style="" title="2013-07-31 03:02:19     1907    +0  -616   moved to riglab&#x2e;naming" class="o" />
<rect x="149" y="617" width="3" height="1" style="fill:rgb(0,0,255)" />
<rect x="149" y="599" width="3" height="18" style="fill:rgb(0,255,0)" />
<rect x="138" y="0" width="25" height="799" style="" title="2013-08-01 01:47:45     2103  +210   -14   WIP&#x3a; save&#x2f;load naming editor" class="o" />
<rect x="174" y="603" width="3" height="5" style="fill:rgb(0,0,255)" />
<rect x="174" y="583" width="3" height="20" style="fill:rgb(0,255,0)" />
<rect x="163" y="0" width="25" height="799" style="" title="2013-08-02 14:00:45     2271  +232   -64   naming editor gui properly working" class="o" />
<rect x="199" y="600" width="3" height="0" style="fill:rgb(0,0,255)" />
<rect x="199" y="597" width="3" height="2" style="fill:rgb(0,255,0)" />
<rect x="188" y="0" width="25" height="799" style="" title="2013-08-02 16:31:41     2302   +33    -2   project goals added" class="o" />
<rect x="224" y="578" width="3" height="0" style="fill:rgb(0,0,255)" />
<rect x="224" y="556" width="3" height="22" style="fill:rgb(0,255,0)" />
<rect x="213" y="0" width="25" height="799" style="" title="2013-08-06 00:00:53     2557  +255    -0   SOLVERS&#x3a; fk refactor" class="o" />
<rect x="249" y="570" width="3" height="1" style="fill:rgb(0,0,255)" />
<rect x="249" y="561" width="3" height="9" style="fill:rgb(0,255,0)" />
<rect x="238" y="0" width="25" height="799" style="" title="2013-08-06 12:35:03     2646  +107   -18   SOLVERS&#x3a; ik refactor" class="o" />
<rect x="274" y="466" width="3" height="6" style="fill:rgb(0,0,255)" />
<rect x="274" y="356" width="3" height="110" style="fill:rgb(0,255,0)" />
<rect x="263" y="0" width="25" height="799" style="" title="2013-08-09 01:20:19     3851 +1276   -71   bonetools added" class="o" />
<rect x="299" y="462" width="3" height="1" style="fill:rgb(0,0,255)" />
<rect x="299" y="456" width="3" height="5" style="fill:rgb(0,255,0)" />
<rect x="288" y="0" width="25" height="799" style="" title="2013-08-09 01:20:58     3901   +67   -17   SOLVERS&#x3a; IK&#x2c; FK cleanup" class="o" />
<rect x="324" y="458" width="3" height="6" style="fill:rgb(0,0,255)" />
<rect x="324" y="448" width="3" height="10" style="fill:rgb(0,255,0)" />
<rect x="313" y="0" width="25" height="799" style="" title="2013-08-10 23:10:04     3944  +116   -73   SOLVERS&#x3a; transform &#x2b; lengths from curve" class="o" />
<rect x="349" y="459" width="3" height="2" style="fill:rgb(0,0,255)" />
<rect x="349" y="457" width="3" height="1" style="fill:rgb(0,255,0)" />
<rect x="338" y="0" width="25" height="799" style="" title="2013-08-11 00:54:42     3934   +18   -28   SOLVER&#x3a; reversed connection automagically handled" class="o" />
<rect x="374" y="456" width="3" height="7" style="fill:rgb(0,0,255)" />
<rect x="374" y="445" width="3" height="10" style="fill:rgb(0,255,0)" />
<rect x="363" y="0" width="25" height="799" style="" title="2013-08-12 13:57:22     3972  +122   -84   SOLVERS&#x3a; snap" class="o" />
<rect x="399" y="330" width="3" height="0" style="fill:rgb(0,0,255)" />
<rect x="399" y="203" width="3" height="126" style="fill:rgb(0,255,0)" />
<rect x="388" y="0" width="25" height="799" style="" title="2013-09-18 00:58:06     5427 +1460    -5   WIP&#x3a; splineIK refactoring" class="o" />
<rect x="424" y="330" width="3" height="1" style="fill:rgb(0,0,255)" />
<rect x="424" y="330" width="3" height="0" style="fill:rgb(0,255,0)" />
<rect x="413" y="0" width="25" height="799" style="" title="2013-10-02 19:50:22     5420    +6   -13   project goals updated &#x2b; splineik refactoring &#x28;wip&#x29;" class="o" />
<rect x="449" y="330" width="3" height="1" style="fill:rgb(0,0,255)" />
<rect x="449" y="328" width="3" height="1" style="fill:rgb(0,255,0)" />
<rect x="438" y="0" width="25" height="799" style="" title="2013-11-22 00:26:12     5430   +22   -12   project goals" class="o" />
<rect x="474" y="266" width="3" height="0" style="fill:rgb(0,0,255)" />
<rect x="474" y="202" width="3" height="63" style="fill:rgb(0,255,0)" />
<rect x="463" y="0" width="25" height="799" style="" title="2013-11-22 00:26:45     6168  +738    -0   pose reader draft" class="o" />
<rect x="499" y="211" width="3" height="0" style="fill:rgb(0,0,255)" />
<rect x="499" y="156" width="3" height="54" style="fill:rgb(0,255,0)" />
<rect x="488" y="0" width="25" height="799" style="" title="2013-11-22 00:27:30     6802  +634    -0   rig&#x2f;solvers gui manager 1" class="o" />
<rect x="524" y="203" width="3" height="4" style="fill:rgb(0,0,255)" />
<rect x="524" y="191" width="3" height="12" style="fill:rgb(0,255,0)" />
<rect x="513" y="0" width="25" height="799" style="" title="2013-11-24 23:47:44     6891  +140   -51   rig&#x2f;solvers gui manager 2" class="o" />
<rect x="549" y="177" width="3" height="15" style="fill:rgb(0,0,255)" />
<rect x="549" y="135" width="3" height="41" style="fill:rgb(0,255,0)" />
<rect x="538" y="0" width="25" height="799" style="" title="2013-12-16 15:15:56     7195  +485  -181   multiposes&#x2b;groups&#x2b;solvers kinda working" class="o" />
<rect x="574" y="170" width="3" height="0" style="fill:rgb(0,0,255)" />
<rect x="574" y="162" width="3" height="7" style="fill:rgb(0,255,0)" />
<rect x="563" y="0" width="25" height="799" style="" title="2013-12-16 18:55:00     7277   +89    -7   select skeleton and manipulators by group" class="o" />
<rect x="599" y="169" width="3" height="0" style="fill:rgb(0,0,255)" />
<rect x="599" y="168" width="3" height="0" style="fill:rgb(0,255,0)" />
<rect x="588" y="0" width="25" height="799" style="" title="2013-12-16 19:23:55     7286   +10    -1   Filter right click menu using context" class="o" />
<rect x="624" y="170" width="3" height="5" style="fill:rgb(0,0,255)" />
<rect x="624" y="166" width="3" height="4" style="fill:rgb(0,255,0)" />
<rect x="613" y="0" width="25" height="799" style="" title="2013-12-16 21:25:47     7272   +49   -63   Clean up" class="o" />
<rect x="649" y="170" width="3" height="0" style="fill:rgb(0,0,255)" />
<rect x="649" y="169" width="3" height="0" style="fill:rgb(0,255,0)" />
<rect x="638" y="0" width="25" height="799" style="" title="2013-12-20 11:01:58     7273    +7    -6   clean up 2" class="o" />
<rect x="674" y="170" width="3" height="0" style="fill:rgb(0,0,255)" />
<rect x="674" y="169" width="3" height="0" style="fill:rgb(0,255,0)" />
<rect x="663" y="0" width="25" height="799" style="" title="2013-12-20 11:39:40     7274    +5    -4   BUGFIX&#x3a; bonetools&#x2e;deep" class="o" />
<rect x="699" y="160" width="3" height="6" style="fill:rgb(0,0,255)" />
<rect x="699" y="145" width="3" height="15" style="fill:rgb(0,255,0)" />
<rect x="688" y="0" width="25" height="799" style="" title="2014-01-13 19:06:22     7383  +182   -73   manipulators GUI" class="o" />
<rect x="724" y="160" width="3" height="1" style="fill:rgb(0,0,255)" />
<rect x="724" y="158" width="3" height="2" style="fill:rgb(0,255,0)" />
<rect x="713" y="0" width="25" height="799" style="" title="2014-01-13 19:46:26     7386   +25   -22   solvers&#x27; cache added" class="o" />
<rect x="749" y="160" width="3" height="0" style="fill:rgb(0,0,255)" />
<rect x="749" y="158" width="3" height="1" style="fill:rgb(0,255,0)" />
<rect x="738" y="0" width="25" height="799" style="" title="2014-01-13 20:51:56     7394   +16    -8   manipulators cache" class="o" />
<rect x="774" y="135" width="3" height="3" style="fill:rgb(0,0,255)" />
<rect x="774" y="108" width="3" height="27" style="fill:rgb(0,255,0)" />
<rect x="763" y="0" width="25" height="799" style="" title="2014-01-15 01:00:51     7672  +315   -37   manipulators signals" class="o" />
<rect x="799" y="123" width="3" height="2" style="fill:rgb(0,0,255)" />
<rect x="799" y="107" width="3" height="15" style="fill:rgb(0,255,0)" />
<rect x="788" y="0" width="25" height="799" style="" title="2014-01-16 01:18:57     7818  +178   -32   solver&#x27;s name" class="o" />
<rect x="824" y="51" width="3" height="10" style="fill:rgb(0,0,255)" />
<rect x="824" y="-31" width="3" height="82" style="fill:rgb(0,255,0)" />
<rect x="813" y="0" width="25" height="799" style="" title="2014-01-16 21:19:16     8651  +958  -125   bonetools &#x2d;&#x3e; utils" class="o" />
<rect x="849" y="16" width="3" height="23" style="fill:rgb(0,0,255)" />
<rect x="849" y="-41" width="3" height="58" style="fill:rgb(0,255,0)" />
<rect x="838" y="0" width="25" height="799" style="" title="2014-01-26 17:49:09     9056  +672  -267   shapes&#x2b;color convention" class="o" />
<rect x="874" y="13" width="3" height="0" style="fill:rgb(0,0,255)" />
<rect x="874" y="10" width="3" height="3" style="fill:rgb(0,255,0)" />
<rect x="863" y="0" width="25" height="799" style="" title="2014-01-26 22:03:32     9083   +36    -9   BUGFIX&#x3a; roll value is now properly determined" class="o" />
<rect x="899" y="10" width="3" height="0" style="fill:rgb(0,0,255)" />
<rect x="899" y="7" width="3" height="3" style="fill:rgb(0,255,0)" />
<rect x="888" y="0" width="25" height="799" style="" title="2014-01-26 22:04:50     9117   +35    -1   project history updated" class="o" />
<rect x="924" y="9" width="3" height="1" style="fill:rgb(0,0,255)" />
<rect x="924" y="6" width="3" height="3" style="fill:rgb(0,255,0)" />
<rect x="913" y="0" width="25" height="799" style="" title="2014-01-27 11:01:13     9134   +36   -19   single bone fk suppport" class="o" />
<rect x="949" y="1" width="3" height="0" style="fill:rgb(0,0,255)" />
<rect x="949" y="-6" width="3" height="8" style="fill:rgb(0,255,0)" />
<rect x="938" y="0" width="25" height="799" style="" title="2014-01-27 13:31:29     9220   +93    -7   Joint utils as commands" class="o" />
<rect x="974" y="1" width="3" height="80" style="fill:rgb(0,0,255)" />
<rect x="974" y="-78" width="3" height="80" style="fill:rgb(0,255,0)" />
<rect x="963" y="0" width="25" height="799" style="" title="2014-01-27 22:55:02     9220  +929  -929   manager &#x2d;&#x3e; editor" class="o" />
<rect x="999" y="0" width="3" height="0" style="fill:rgb(0,0,255)" />
<rect x="999" y="-2" width="3" height="2" style="fill:rgb(0,255,0)" />
<rect x="988" y="0" width="25" height="799" style="" title="2014-01-27 22:55:43     9243   +27    -4   orthogonalize utility" class="o" />
<rect x="1024" y="109" width="3" height="110" style="fill:rgb(0,0,255)" />
<rect x="1024" y="107" width="3" height="1" style="fill:rgb(0,255,0)" />
<rect x="1013" y="0" width="25" height="799" style="" title="2014-01-28 15:17:53     7983   +21 -1281   naming module as dependency" class="o" />
<rect x="1049" y="105" width="3" height="3" style="fill:rgb(0,0,255)" />
<rect x="1049" y="98" width="3" height="7" style="fill:rgb(0,255,0)" />
<rect x="1038" y="0" width="25" height="799" style="" title="2014-01-29 01:15:45     8024   +82   -41   BUGFIX&#x3a; snap should be compatible with custom spaces" class="o" />
<rect x="1074" y="104" width="3" height="0" style="fill:rgb(0,0,255)" />
<rect x="1074" y="103" width="3" height="1" style="fill:rgb(0,255,0)" />
<rect x="1063" y="0" width="25" height="799" style="" title="2014-01-29 13:31:19     8035   +15    -4   BUGFIX&#x3a; preserve skeleton&#x27;s pose from disabled solvers" class="o" />
<rect x="1099" y="104" width="3" height="0" style="fill:rgb(0,0,255)" />
<rect x="1099" y="104" width="3" height="0" style="fill:rgb(0,255,0)" />
<rect x="1088" y="0" width="25" height="799" style="" title="2014-01-29 17:56:51     8035    +2    -2   BUGFIX&#x3a; side on manipulators name" class="o" />
<rect x="1124" y="94" width="3" height="1" style="fill:rgb(0,0,255)" />
<rect x="1124" y="81" width="3" height="12" style="fill:rgb(0,255,0)" />
<rect x="1113" y="0" width="25" height="799" style="" title="2014-01-29 23:11:21     8154  +142   -23   group&#x5f;data &#x28;templates&#x29; and mapping gui" class="o" />
<rect x="1149" y="81" width="3" height="10" style="fill:rgb(0,0,255)" />
<rect x="1149" y="59" width="3" height="22" style="fill:rgb(0,255,0)" />
<rect x="1138" y="0" width="25" height="799" style="" title="2014-01-30 03:21:52     8299  +262  -117   License GPL3" class="o" />
<rect x="1174" y="81" width="3" height="2" style="fill:rgb(0,0,255)" />
<rect x="1174" y="79" width="3" height="1" style="fill:rgb(0,255,0)" />
<rect x="1163" y="0" width="25" height="799" style="" title="2014-01-30 17:25:59     8296   +23   -26   typo" class="o" />
<rect x="1199" y="76" width="3" height="1" style="fill:rgb(0,0,255)" />
<rect x="1199" y="70" width="3" height="6" style="fill:rgb(0,255,0)" />
<rect x="1188" y="0" width="25" height="799" style="" title="2014-01-30 22:36:19     8356   +72   -12   template files &#x28;JSON based&#x29;" class="o" />
<rect x="1224" y="74" width="3" height="0" style="fill:rgb(0,0,255)" />
<rect x="1224" y="71" width="3" height="2" style="fill:rgb(0,255,0)" />
<rect x="1213" y="0" width="25" height="799" style="" title="2014-01-31 19:59:16     8388   +32    -0   templates specs" class="o" />
<rect x="1249" y="74" width="3" height="1" style="fill:rgb(0,0,255)" />
<rect x="1249" y="72" width="3" height="1" style="fill:rgb(0,255,0)" />
<rect x="1238" y="0" width="25" height="799" style="" title="2014-01-31 20:10:01     8388   +12   -12   template specs &#x28;reformatting&#x29;" class="o" />
<rect x="1274" y="71" width="3" height="1" style="fill:rgb(0,0,255)" />
<rect x="1274" y="67" width="3" height="3" style="fill:rgb(0,255,0)" />
<rect x="1263" y="0" width="25" height="799" style="" title="2014-01-31 20:37:03     8418   +45   -15   Templates&#x3a; solver &#x2b; internal dependencies working" class="o" />
<rect x="1299" y="70" width="3" height="0" style="fill:rgb(0,0,255)" />
<rect x="1299" y="69" width="3" height="1" style="fill:rgb(0,255,0)" />
<rect x="1288" y="0" width="25" height="799" style="" title="2014-01-31 20:56:27     8428   +12    -2   Templates&#x3a; states working&#x21;" class="o" />
<rect x="1324" y="70" width="3" height="0" style="fill:rgb(0,0,255)" />
<rect x="1324" y="70" width="3" height="0" style="fill:rgb(0,255,0)" />
<rect x="1313" y="0" width="25" height="799" style="" title="2014-01-31 21:00:45     8431    +3    -0   templates specs&#x3a; include states" class="o" />
<rect x="1349" y="67" width="3" height="4" style="fill:rgb(0,0,255)" />
<rect x="1349" y="60" width="3" height="6" style="fill:rgb(0,255,0)" />
<rect x="1338" y="0" width="25" height="799" style="" title="2014-02-01 18:01:47     8461   +78   -48   BUGFIX&#x3a; state restored on reload&#x5f;stack&#x28;&#x29;" class="o" />
<rect x="1374" y="67" width="3" height="0" style="fill:rgb(0,0,255)" />
<rect x="1374" y="66" width="3" height="0" style="fill:rgb(0,255,0)" />
<rect x="1363" y="0" width="25" height="799" style="" title="2014-02-01 18:53:49     8463    +8    -6   BUGFIX&#x3a; incorrect name on solvers&#x27; helpers&#x2f;outputs" class="o" />
<rect x="1399" y="53" width="3" height="7" style="fill:rgb(0,0,255)" />
<rect x="1399" y="31" width="3" height="21" style="fill:rgb(0,255,0)" />
<rect x="1388" y="0" width="25" height="799" style="" title="2014-02-02 16:55:20     8629  +250   -84   space types&#x3a; &#x22;parent&#x22; or &#x22;orient&#x22;" class="o" />
<rect x="1424" y="53" width="3" height="0" style="fill:rgb(0,0,255)" />
<rect x="1424" y="53" width="3" height="0" style="fill:rgb(0,255,0)" />
<rect x="1413" y="0" width="25" height="799" style="" title="2014-02-02 16:57:20     8625    +0    -4   external spaces support" class="o" />
<rect x="1449" y="53" width="3" height="1" style="fill:rgb(0,0,255)" />
<rect x="1449" y="51" width="3" height="1" style="fill:rgb(0,255,0)" />
<rect x="1438" y="0" width="25" height="799" style="" title="2014-02-02 20:45:09     8626   +22   -21   external&#x2f;internal dependencies &#x28;templates&#x2b;auto&#x2d;snap&#x29;" class="o" />
<rect x="1474" y="38" width="3" height="2" style="fill:rgb(0,0,255)" />
<rect x="1474" y="21" width="3" height="17" style="fill:rgb(0,255,0)" />
<rect x="1463" y="0" width="25" height="799" style="" title="2014-02-03 20:09:40     8797  +199   -28   quicklab &#x2b; unified cache" class="o" />
<rect x="1499" y="34" width="3" height="8" style="fill:rgb(0,0,255)" />
<rect x="1499" y="23" width="3" height="11" style="fill:rgb(0,255,0)" />
<rect x="1488" y="0" width="25" height="799" style="" title="2014-02-04 02:29:32     8839  +137   -95   cleanup" class="o" />
<polyline points="25,720 50,641 75,634 100,581 125,634 150,617 175,603 200,600 225,578 250,570 275,466 300,462 325,458 350,459 375,456 400,330 425,330 450,330 475,266 500,211 525,203 550,177 575,170 600,169 625,170 650,170 675,170 700,160 725,160 750,160 775,135 800,123 825,51 850,16 875,13 900,10 925,9 950,1 975,1 1000,0 1025,109 1050,105 1075,104 1100,104 1125,94 1150,81 1175,81 1200,76 1225,74 1250,74 1275,71 1300,70 1325,70 1350,67 1375,67 1400,53 1425,53 1450,53 1475,38 1500,34" class="a" style="stroke:red"/></svg>
